<!-- Generator: Adobe Illustrator 19.2.1, SVG Export Plug-In  -->
<svg version="1.1"
	 xmlns="http://www.w3.org/2000/svg" xmlns:xlink="http://www.w3.org/1999/xlink" xmlns:a="http://ns.adobe.com/AdobeSVGViewerExtensions/3.0/"
	 x="0px" y="0px" width="68.408px" height="68.408px" viewBox="0 0 68.408 68.408"
	 style="enable-background:new 0 0 68.408 68.408;" xml:space="preserve">
<style type="text/css">
	.st0{fill:#00C784;}
	.st1{fill:#FFFFFF;}
</style>
<defs>
</defs>
<g>
	<g>
		<g>
			<circle class="st0" cx="34.204" cy="34.204" r="34.204"/>
		</g>
	</g>
</g>
<g>
	<g>
		<g>
			<path class="st1" d="M45.423,22.837H22.985c-0.849,0-1.541,0.691-1.541,1.541v15.491c0,0.849,0.691,1.541,1.541,1.541h7.688
				v1.121c0,1.028-0.836,1.864-1.864,1.864h-1.694c-0.325,0-0.588,0.263-0.588,0.588c0,0.325,0.263,0.588,0.588,0.588h14.176
				c0.325,0,0.588-0.263,0.588-0.588c0-0.325-0.263-0.588-0.588-0.588h-1.694c-1.028,0-1.864-0.836-1.864-1.864V41.41h7.688
				c0.849,0,1.541-0.691,1.541-1.541V24.378C46.963,23.529,46.272,22.837,45.423,22.837z M31.21,44.395
				c0.401-0.515,0.641-1.162,0.641-1.864V41.41h4.707v1.121c0,0.702,0.24,1.348,0.641,1.864H31.21z M45.787,39.869
				c0,0.201-0.163,0.364-0.364,0.364H22.985c-0.201,0-0.364-0.163-0.364-0.364v-3.092h23.165V39.869z M45.787,35.601H22.621V24.378
				c0-0.201,0.163-0.364,0.364-0.364h22.437c0.201,0,0.364,0.163,0.364,0.364L45.787,35.601L45.787,35.601z"/>
		</g>
	</g>
	<g>
		<g>
			<circle class="st1" cx="34.204" cy="38.506" r="0.635"/>
		</g>
	</g>
	<g>
		<g>
			<path class="st1" d="M35.213,26.89c-0.23-0.23-0.602-0.23-0.832,0l-4.157,4.157c-0.23,0.23-0.23,0.602,0,0.832
				c0.115,0.115,0.265,0.172,0.416,0.172c0.151,0,0.301-0.057,0.416-0.172l4.157-4.157C35.442,27.493,35.442,27.12,35.213,26.89z"/>
		</g>
	</g>
	<g>
		<g>
			<path class="st1" d="M37.677,29.3c-0.23-0.23-0.602-0.23-0.832,0l-1.656,1.656c-0.23,0.23-0.23,0.602,0,0.832
				c0.115,0.115,0.265,0.172,0.416,0.172c0.151,0,0.301-0.057,0.416-0.172l1.656-1.656C37.907,29.902,37.907,29.529,37.677,29.3z"/>
		</g>
	</g>
</g>
</svg>