<!-- Generator: Adobe Illustrator 19.2.1, SVG Export Plug-In  -->
<svg version="1.1"
	 xmlns="http://www.w3.org/2000/svg" xmlns:xlink="http://www.w3.org/1999/xlink" xmlns:a="http://ns.adobe.com/AdobeSVGViewerExtensions/3.0/"
	 x="0px" y="0px" width="89.407px" height="89.408px" viewBox="0 0 89.407 89.408"
	 style="enable-background:new 0 0 89.407 89.408;" xml:space="preserve">
<style type="text/css">
	.st0{fill:#00C784;}
	.st1{fill:#FFFFFF;}
</style>
<defs>
</defs>
<g>
	<g>
		<g>
			<circle class="st0" cx="44.704" cy="44.704" r="44.704"/>
		</g>
	</g>
</g>
<g>
	<g>
		<g>
			<path class="st1" d="M45.758,25.57c-10.399,0-18.859,8.46-18.859,18.859s8.46,18.859,18.859,18.859s18.859-8.46,18.859-18.859
				S56.157,25.57,45.758,25.57z M62.259,38.963h-1.16c-0.357,0-0.715,0.085-1.035,0.244l-0.425,0.213
				c-0.268,0.134-0.589,0.114-0.839-0.052L57.197,38.3c-0.121-0.081-0.264-0.124-0.41-0.124h-0.196l0.547-0.821
				c0.028-0.041,0.073-0.066,0.123-0.066h1.151v0.321c0,0.408,0.331,0.739,0.739,0.739c0.364,0,0.665-0.263,0.727-0.609l0.269,0.135
				c0.265,0.133,0.562,0.203,0.859,0.203h0.932C62.053,38.369,62.159,38.664,62.259,38.963z M56.738,32.15
				c0-0.013,0.005-0.026,0.014-0.035l0.557-0.557c0.019-0.019,0.036-0.038,0.052-0.058c0.326,0.293,0.64,0.597,0.943,0.913
				l-0.464,0.464c-0.288,0.288-0.288,0.756,0,1.045c0.144,0.144,0.333,0.216,0.522,0.216s0.378-0.072,0.522-0.216l0.397-0.397
				c0.766,0.948,1.435,1.979,1.991,3.076h-0.268c-0.068,0-0.137-0.016-0.198-0.047l-1.139-0.57
				c-0.224-0.112-0.476-0.171-0.727-0.171h-1.68c-0.545,0-1.05,0.271-1.352,0.724l-1.093,1.64h-0.688
				c-0.299,0-0.542-0.243-0.542-0.542v-1.303c0-0.021,0.014-0.04,0.034-0.047l1.441-0.48c0.359-0.12,0.691-0.325,0.958-0.592
				c0.463-0.463,0.718-1.079,0.718-1.734L56.738,32.15L56.738,32.15z M34.153,31.5c0.016,0.02,0.033,0.039,0.052,0.058l0.788,0.788
				c0.138,0.139,0.326,0.216,0.522,0.216s0.384-0.078,0.522-0.216l1.114-1.114c0.158-0.158,0.368-0.245,0.592-0.245h0.972v0.049
				c0,0.256,0.133,0.494,0.35,0.628c0.218,0.135,0.49,0.147,0.719,0.032l1.289-0.645c0.085-0.043,0.181-0.065,0.276-0.065h2.635
				c-0.288,0.188-0.488,0.488-0.55,0.844c-0.087,0.502,0.122,0.99,0.547,1.272l1.015,0.677c0.014,0.009,0.022,0.024,0.022,0.041
				v0.366c0,0.027-0.022,0.049-0.049,0.049h-0.339c-0.487,0-0.944,0.19-1.288,0.534l-4.967,4.967
				c-0.009,0.009-0.022,0.014-0.035,0.014h-1.249c-1.276,0-2.314,1.038-2.314,2.314v0.36l-0.819-0.164
				c-0.195-0.039-0.358-0.164-0.447-0.341l-0.486-0.972c-0.125-0.25-0.381-0.408-0.661-0.408h-0.44c-0.361,0-0.68-0.23-0.794-0.572
				l-1.028-3.085C31.094,34.832,32.477,33.006,34.153,31.5z M45.758,61.811c-9.584,0-17.382-7.798-17.382-17.382
				c0-1.898,0.307-3.726,0.872-5.438l0.481,1.442c0.314,0.941,1.188,1.576,2.179,1.582l0.282,0.564c0.294,0.589,0.833,1,1.479,1.129
				l2.817,0.563c0.158,0.032,0.302,0.109,0.417,0.223c0.229,0.229,0.498,0.404,0.792,0.518l-0.515,1.545
				c-0.025,0.075-0.038,0.154-0.038,0.234v1.576c0,0.724,0.346,1.417,0.926,1.851l1.891,1.418c0.21,0.157,0.335,0.408,0.335,0.67
				v4.25c0,0.459,0.134,0.902,0.389,1.284l1.136,1.704c0.247,0.371,0.661,0.592,1.106,0.592h0.275c0.516,0,0.936-0.42,0.936-0.936
				v-1.351c0-0.329,0.128-0.638,0.361-0.87l1.458-1.458c0.296-0.296,0.522-0.662,0.654-1.059l0.461-1.384
				c0.007-0.02,0.026-0.034,0.047-0.034h0.393c0.702,0,1.311-0.475,1.481-1.156l0.531-2.122c0.129-0.517-0.025-1.073-0.402-1.449
				l-1.03-1.03c-0.288-0.288-0.672-0.447-1.079-0.447h-0.943l-2.704-2.704c-0.288-0.288-0.672-0.447-1.079-0.447h-3.596
				c-0.012,0-0.023,0-0.034,0h-0.127c-0.218,0-0.423-0.085-0.577-0.239c-0.321-0.321-0.726-0.538-1.172-0.627l-0.52-0.104v-0.655
				c0-0.462,0.375-0.837,0.837-0.837h0.837v0.049c0,0.408,0.331,0.739,0.739,0.739s0.739-0.331,0.739-0.739v-0.483
				c0.005-0.005,0.01-0.009,0.014-0.013l4.967-4.967c0.065-0.065,0.152-0.101,0.244-0.101h0.339c0.842,0,1.526-0.685,1.526-1.526
				v-0.366c0-0.512-0.254-0.986-0.68-1.27l-0.623-0.416l1.197-0.299c0.527-0.132,0.894-0.603,0.894-1.146
				c0-0.651-0.53-1.181-1.181-1.181h-4.753c-0.324,0-0.648,0.076-0.937,0.221l-0.488,0.244c-0.226-0.283-0.574-0.465-0.963-0.465
				h-1.219c-0.618,0-1.199,0.241-1.637,0.678l-0.592,0.592l-0.221-0.221c2.913-2.203,6.538-3.511,10.463-3.511
				s7.55,1.308,10.463,3.511l-0.512,0.512c-0.288,0.288-0.447,0.672-0.447,1.079v1.328c0,0.26-0.101,0.505-0.285,0.689
				c-0.106,0.106-0.238,0.188-0.381,0.236l-1.441,0.48c-0.624,0.208-1.044,0.79-1.044,1.448v1.303c0,0.372,0.103,0.72,0.279,1.02
				c-0.3,0.202-0.562,0.461-0.769,0.772l-0.697,1.046c-0.254,0.381-0.389,0.825-0.389,1.284v1.409c0,0.458,0.134,0.902,0.389,1.284
				l0.843,1.265c0.43,0.645,1.15,1.031,1.926,1.031h1.96c0.361,0,0.68,0.23,0.794,0.572l0.176,0.528
				c0.142,0.428,0.215,0.873,0.215,1.324v0.558c0,0.737,0.103,1.469,0.305,2.178l1.267,4.433
				C55.236,59.704,50.739,61.811,45.758,61.811z M40.844,50.456l-1.891-1.418c-0.21-0.157-0.335-0.408-0.335-0.67v-1.456
				l0.582-1.745h3.081c0.013,0,0.026,0.005,0.035,0.014l2.921,2.921c0.138,0.139,0.326,0.216,0.522,0.216h1.249
				c0.013,0,0.026,0.005,0.035,0.014l1.03,1.03c0.012,0.012,0.017,0.03,0.013,0.047l-0.531,2.122
				c-0.006,0.022-0.025,0.037-0.048,0.037h-0.393c-0.658,0-1.24,0.419-1.448,1.044l-0.461,1.384c-0.06,0.18-0.163,0.347-0.297,0.481
				l-1.458,1.458c-0.512,0.512-0.793,1.192-0.793,1.915v0.29l-0.746-1.119c-0.092-0.138-0.14-0.299-0.14-0.464v-4.25
				C41.769,51.583,41.423,50.891,40.844,50.456z M58.562,51.497c-0.165-0.577-0.248-1.173-0.248-1.772v-0.558
				c0-0.61-0.098-1.212-0.291-1.791l-0.176-0.528c-0.315-0.946-1.198-1.582-2.195-1.582h-1.96c-0.28,0-0.541-0.139-0.696-0.373
				l-0.843-1.265c-0.092-0.138-0.141-0.299-0.141-0.464v-1.409c0-0.166,0.049-0.326,0.141-0.464l0.697-1.046
				c0.247-0.371,0.661-0.592,1.106-0.592h2.609l1.417,0.944c0.689,0.459,1.578,0.515,2.319,0.144l0.425-0.213
				c0.116-0.058,0.245-0.088,0.374-0.088h1.578c0.302,1.281,0.463,2.616,0.463,3.989c0,3.967-1.336,7.626-3.581,10.555
				L58.562,51.497z"/>
		</g>
	</g>
	<g>
		<g>
			<path class="st1" d="M42.479,32.281c-0.182-0.365-0.626-0.513-0.991-0.33l-1.576,0.788c-0.365,0.182-0.513,0.626-0.33,0.991
				c0.129,0.259,0.39,0.408,0.661,0.408c0.111,0,0.224-0.025,0.33-0.078l1.576-0.788C42.514,33.089,42.662,32.646,42.479,32.281z"/>
		</g>
	</g>
	<g>
		<g>
			<path class="st1" d="M53.636,31.085c-0.408,0-0.739,0.331-0.739,0.739v0.788c0,0.408,0.331,0.739,0.739,0.739
				c0.408,0,0.739-0.331,0.739-0.739v-0.788C54.375,31.415,54.044,31.085,53.636,31.085z"/>
		</g>
	</g>
</g>
</svg>