<!-- Generator: Adobe Illustrator 19.2.1, SVG Export Plug-In  -->
<svg version="1.1"
	 xmlns="http://www.w3.org/2000/svg" xmlns:xlink="http://www.w3.org/1999/xlink" xmlns:a="http://ns.adobe.com/AdobeSVGViewerExtensions/3.0/"
	 x="0px" y="0px" width="68.408px" height="68.408px" viewBox="0 0 68.408 68.408"
	 style="enable-background:new 0 0 68.408 68.408;" xml:space="preserve">
<style type="text/css">
	.st0{fill:#00C784;}
	.st1{fill:#FFFFFF;}
</style>
<defs>
</defs>
<g>
	<g>
		<g>
			<circle class="st0" cx="34.204" cy="34.204" r="34.204"/>
		</g>
	</g>
</g>
<g>
	<path class="st1" d="M40.409,22.197H28.881c-1.111,0-2.016,0.905-2.016,2.016v23.426c0,1.112,0.905,2.016,2.016,2.016h11.527
		c1.112,0,2.016-0.905,2.016-2.016V24.213C42.425,23.102,41.52,22.197,40.409,22.197z M27.78,25.858h13.729v17.39H27.78V25.858z
		 M28.881,23.112h11.527c0.607,0,1.101,0.494,1.101,1.101v0.73H27.78v-0.73C27.78,23.606,28.274,23.112,28.881,23.112z
		 M40.409,48.74H28.881c-0.607,0-1.101-0.494-1.101-1.101v-3.476h13.729v3.476C41.509,48.246,41.016,48.74,40.409,48.74z"/>
	<path class="st1" d="M34.645,44.621c-1.01,0-1.831,0.821-1.831,1.831c0,1.01,0.821,1.831,1.831,1.831
		c1.01,0,1.831-0.821,1.831-1.831C36.475,45.442,35.654,44.621,34.645,44.621z M34.645,47.367c-0.505,0-0.915-0.411-0.915-0.915
		c0-0.505,0.411-0.915,0.915-0.915c0.505,0,0.915,0.411,0.915,0.915C35.56,46.957,35.15,47.367,34.645,47.367z"/>
	<path class="st1" d="M32.814,24.485h1.831c0.253,0,0.458-0.205,0.458-0.458s-0.205-0.458-0.458-0.458h-1.831
		c-0.253,0-0.458,0.205-0.458,0.458S32.561,24.485,32.814,24.485z"/>
	<path class="st1" d="M36.018,24.485h0.458c0.253,0,0.458-0.205,0.458-0.458s-0.205-0.458-0.458-0.458h-0.458
		c-0.253,0-0.458,0.205-0.458,0.458S35.765,24.485,36.018,24.485z"/>
	<path class="st1" d="M46.823,24.288c-0.179-0.179-0.468-0.179-0.647,0c-0.179,0.179-0.179,0.468,0,0.647
		c1.71,1.71,1.71,4.492,0,6.202c-0.179,0.179-0.179,0.468,0,0.647c0.089,0.089,0.206,0.134,0.324,0.134
		c0.117,0,0.234-0.045,0.324-0.134C48.89,29.718,48.89,26.355,46.823,24.288z"/>
	<path class="st1" d="M44.896,25.33c-0.179-0.179-0.468-0.179-0.647,0c-0.179,0.179-0.179,0.468,0,0.647
		c0.566,0.566,0.878,1.32,0.878,2.123s-0.312,1.556-0.878,2.123c-0.179,0.179-0.179,0.468,0,0.647
		c0.089,0.089,0.206,0.134,0.324,0.134s0.234-0.045,0.324-0.134c0.739-0.739,1.146-1.723,1.146-2.77
		C46.042,27.053,45.636,26.068,44.896,25.33z"/>
	<path class="st1" d="M23.113,24.935c0.179-0.179,0.179-0.468,0-0.647s-0.468-0.179-0.647,0c-2.067,2.067-2.067,5.429,0,7.496
		c0.089,0.089,0.206,0.134,0.324,0.134c0.117,0,0.234-0.045,0.324-0.134c0.179-0.179,0.179-0.468,0-0.647
		C21.403,29.427,21.403,26.645,23.113,24.935z"/>
	<path class="st1" d="M25.04,25.203c-0.179-0.179-0.468-0.179-0.647,0c-0.739,0.739-1.146,1.723-1.146,2.77s0.407,2.031,1.146,2.77
		c0.089,0.089,0.206,0.134,0.324,0.134c0.117,0,0.234-0.045,0.324-0.134c0.179-0.179,0.179-0.468,0-0.647
		c-0.566-0.566-0.878-1.32-0.878-2.123s0.311-1.556,0.878-2.123C25.219,25.672,25.219,25.382,25.04,25.203z"/>
</g>
</svg>