<!-- Generator: Adobe Illustrator 19.2.1, SVG Export Plug-In  -->
<svg version="1.1"
	 xmlns="http://www.w3.org/2000/svg" xmlns:xlink="http://www.w3.org/1999/xlink" xmlns:a="http://ns.adobe.com/AdobeSVGViewerExtensions/3.0/"
	 x="0px" y="0px" width="51.759px" height="73.231px" viewBox="0 0 51.759 73.231"
	 style="enable-background:new 0 0 51.759 73.231;" xml:space="preserve">
<style type="text/css">
	.st0{fill:#FFFFFF;}
</style>
<defs>
</defs>
<g>
	<rect x="14.253" y="56.855" class="st0" width="23.253" height="4.634"/>
	<polygon class="st0" points="37.506,64.612 14.253,64.612 14.253,69.243 20.294,69.243 20.294,73.231 31.465,73.231 31.465,69.243 
		37.506,69.243 	"/>
	<path class="st0" d="M25.879,0C11.585,0,0,11.588,0,25.883c0,9.88,5.538,18.463,13.68,22.825v4.195h23.259v-3.622
		c8.758-4.145,14.82-13.063,14.82-23.398C51.759,11.588,40.171,0,25.879,0z M26.061,42.971l-0.182-0.183l-0.183,0.183l-11.572-11.57
		l3.516-3.512l8.239,8.24l8.241-8.24l3.515,3.512L26.061,42.971z"/>
</g>
</svg>