<!-- Generator: Adobe Illustrator 19.2.1, SVG Export Plug-In  -->
<svg version="1.1"
	 xmlns="http://www.w3.org/2000/svg" xmlns:xlink="http://www.w3.org/1999/xlink" xmlns:a="http://ns.adobe.com/AdobeSVGViewerExtensions/3.0/"
	 x="0px" y="0px" width="48.896px" height="66.359px" viewBox="0 0 48.896 66.359"
	 style="enable-background:new 0 0 48.896 66.359;" xml:space="preserve">
<style type="text/css">
	.st0{fill:#FFFFFF;}
</style>
<defs>
</defs>
<g>
	<path class="st0" d="M44.53,29.249H4.366C1.964,29.249,0,31.215,0,33.617v28.376c0,2.402,1.964,4.366,4.366,4.366H44.53
		c2.402,0,4.366-1.963,4.366-4.366V33.617C48.896,31.215,46.932,29.249,44.53,29.249z M28.158,47.141v9.614h-7.421v-9.614
		c-1.331-1.08-2.183-2.728-2.183-4.575c0-3.255,2.638-5.895,5.892-5.895c3.257,0,5.894,2.64,5.894,5.895
		C30.341,44.413,29.489,46.062,28.158,47.141z"/>
	<path class="st0" d="M17.245,24.883v-8.04c0-5.075,2.151-9.186,4.802-9.186h4.801c2.654,0,4.803,4.111,4.803,9.186v8.04h8.514
		V9.187C40.165,4.114,35.474,0,29.686,0H19.208C13.421,0,8.731,4.114,8.731,9.187v15.697H17.245z"/>
</g>
</svg>