<!-- Generator: Adobe Illustrator 19.2.1, SVG Export Plug-In  -->
<svg version="1.1"
	 xmlns="http://www.w3.org/2000/svg" xmlns:xlink="http://www.w3.org/1999/xlink" xmlns:a="http://ns.adobe.com/AdobeSVGViewerExtensions/3.0/"
	 x="0px" y="0px" width="78.291px" height="78.291px" viewBox="0 0 78.291 78.291"
	 style="enable-background:new 0 0 78.291 78.291;" xml:space="preserve">
<style type="text/css">
	.st0{fill:#00C784;}
	.st1{fill:none;stroke:#FFFFFF;stroke-miterlimit:10;}
	.st2{fill:#FFFFFF;}
</style>
<defs>
</defs>
<g>
	<circle class="st0" cx="39.145" cy="39.146" r="38.645"/>
	<circle class="st1" cx="39.145" cy="39.146" r="38.645"/>
</g>
<g>
	<rect x="34.325" y="47.819" class="st2" width="9.641" height="1.921"/>
	<polygon class="st2" points="43.966,51.036 34.325,51.036 34.325,52.956 36.83,52.956 36.83,54.609 41.461,54.609 41.461,52.956 
		43.966,52.956 	"/>
	<path class="st2" d="M39.145,24.246c-5.926,0-10.73,4.805-10.73,10.731c0,4.096,2.296,7.655,5.672,9.464v1.739h9.643v-1.502
		c3.631-1.719,6.145-5.416,6.145-9.701C49.875,29.051,45.071,24.246,39.145,24.246z M39.22,42.063l-0.075-0.076l-0.076,0.076
		l-4.798-4.797l1.458-1.456l3.416,3.417l3.417-3.417l1.457,1.456L39.22,42.063z"/>
</g>
</svg>