<!-- Generator: Adobe Illustrator 19.2.1, SVG Export Plug-In  -->
<svg version="1.1"
	 xmlns="http://www.w3.org/2000/svg" xmlns:xlink="http://www.w3.org/1999/xlink" xmlns:a="http://ns.adobe.com/AdobeSVGViewerExtensions/3.0/"
	 x="0px" y="0px" width="68.408px" height="68.408px" viewBox="0 0 68.408 68.408"
	 style="enable-background:new 0 0 68.408 68.408;" xml:space="preserve">
<style type="text/css">
	.st0{fill:#00C784;}
	.st1{fill:#FFFFFF;}
</style>
<defs>
</defs>
<g>
	<g>
		<g>
			<circle class="st0" cx="34.204" cy="34.204" r="34.204"/>
		</g>
	</g>
</g>
<g>
	<path class="st1" d="M34.138,22.943c-5.314,0-9.64,4.326-9.64,9.64c0,0.605,0.055,1.215,0.171,1.81
		c0.005,0.035,0.025,0.141,0.066,0.323c0.146,0.65,0.363,1.291,0.645,1.901c1.039,2.445,3.323,6.202,8.334,10.225
		c0.126,0.101,0.277,0.151,0.429,0.151c0.151,0,0.303-0.05,0.429-0.151c5.007-4.023,7.296-7.78,8.334-10.225
		c0.282-0.61,0.499-1.245,0.645-1.901c0.04-0.182,0.061-0.287,0.066-0.323c0.111-0.595,0.171-1.205,0.171-1.81
		C43.779,27.269,39.453,22.943,34.138,22.943z M42.266,34.157c0,0.01-0.005,0.02-0.005,0.03c-0.005,0.025-0.02,0.101-0.045,0.217
		v0.01c-0.126,0.565-0.313,1.114-0.56,1.644c0,0-0.005,0.015-0.01,0.02c-0.943,2.234-3.01,5.642-7.507,9.358
		c-4.497-3.716-6.565-7.124-7.507-9.358c-0.005-0.005-0.005-0.015-0.005-0.015c-0.247-0.529-0.434-1.084-0.565-1.649v-0.005
		c-0.03-0.121-0.04-0.197-0.045-0.222c0-0.01-0.005-0.02-0.005-0.035c-0.101-0.519-0.151-1.044-0.151-1.573
		c0-4.563,3.716-8.279,8.279-8.279s8.279,3.716,8.279,8.279C42.417,33.113,42.367,33.642,42.266,34.157z"/>
	<path class="st1" d="M34.138,26.568c-3.373,0-6.121,2.748-6.121,6.121s2.748,6.121,6.121,6.121s6.121-2.748,6.121-6.121
		S37.511,26.568,34.138,26.568z M34.138,37.449c-2.627,0-4.76-2.138-4.76-4.76c0-2.622,2.138-4.76,4.76-4.76s4.76,2.138,4.76,4.76
		C38.898,35.311,36.765,37.449,34.138,37.449z"/>
</g>
</svg>