<!-- Generator: Adobe Illustrator 19.2.1, SVG Export Plug-In  -->
<svg version="1.1"
	 xmlns="http://www.w3.org/2000/svg" xmlns:xlink="http://www.w3.org/1999/xlink" xmlns:a="http://ns.adobe.com/AdobeSVGViewerExtensions/3.0/"
	 x="0px" y="0px" width="78.291px" height="78.291px" viewBox="0 0 78.291 78.291"
	 style="enable-background:new 0 0 78.291 78.291;" xml:space="preserve">
<style type="text/css">
	.st0{fill:#00C784;}
	.st1{fill:none;stroke:#FFFFFF;stroke-miterlimit:10;}
	.st2{fill:#FFFFFF;}
</style>
<defs>
</defs>
<g>
	<circle class="st0" cx="39.145" cy="39.146" r="38.645"/>
	<circle class="st1" cx="39.145" cy="39.146" r="38.645"/>
</g>
<g>
	<path class="st2" d="M48.156,37.664H30.134c-1.077,0-1.959,0.882-1.959,1.96v12.732c0,1.078,0.881,1.959,1.959,1.959h18.022
		c1.078,0,1.959-0.881,1.959-1.959V39.624C50.115,38.546,49.234,37.664,48.156,37.664z M40.81,45.693v4.314h-3.33v-4.314
		c-0.597-0.484-0.979-1.224-0.979-2.053c0-1.461,1.184-2.645,2.644-2.645c1.461,0,2.645,1.184,2.645,2.645
		C41.789,44.469,41.407,45.208,40.81,45.693z"/>
	<path class="st2" d="M35.913,35.706v-3.608c0-2.277,0.965-4.122,2.155-4.122h2.154c1.191,0,2.155,1.845,2.155,4.122v3.608h3.82
		v-7.043c0-2.276-2.105-4.122-4.702-4.122h-4.702c-2.597,0-4.701,1.846-4.701,4.122v7.043H35.913z"/>
</g>
</svg>