<!-- Generator: Adobe Illustrator 19.2.1, SVG Export Plug-In  -->
<svg version="1.1"
	 xmlns="http://www.w3.org/2000/svg" xmlns:xlink="http://www.w3.org/1999/xlink" xmlns:a="http://ns.adobe.com/AdobeSVGViewerExtensions/3.0/"
	 x="0px" y="0px" width="78.291px" height="78.291px" viewBox="0 0 78.291 78.291"
	 style="enable-background:new 0 0 78.291 78.291;" xml:space="preserve">
<style type="text/css">
	.st0{fill:#00C784;}
	.st1{fill:none;stroke:#FFFFFF;stroke-miterlimit:10;}
	.st2{fill:#FFFFFF;}
</style>
<defs>
</defs>
<g>
	<circle class="st0" cx="39.145" cy="39.146" r="38.645"/>
	<circle class="st1" cx="39.145" cy="39.146" r="38.645"/>
</g>
<g>
	<g id="print_1_">
		<path class="st2" d="M48.998,33.388H29.293c-2.393,0-4.223,1.83-4.223,4.223v8.445h5.63v5.63h16.89v-5.63h5.63v-8.445
			C53.22,35.218,51.391,33.388,48.998,33.388z M44.775,48.871h-11.26v-7.038h11.26V48.871z M48.998,39.018
			c-0.845,0-1.408-0.563-1.408-1.408s0.563-1.408,1.408-1.408c0.845,0,1.408,0.563,1.408,1.408S49.842,39.018,48.998,39.018z
			 M47.59,26.351H30.7v5.63h16.89V26.351z"/>
	</g>
</g>
</svg>