<!-- Generator: Adobe Illustrator 19.2.1, SVG Export Plug-In  -->
<svg version="1.1"
	 xmlns="http://www.w3.org/2000/svg" xmlns:xlink="http://www.w3.org/1999/xlink" xmlns:a="http://ns.adobe.com/AdobeSVGViewerExtensions/3.0/"
	 x="0px" y="0px" width="82.712px" height="82.712px" viewBox="0 0 82.712 82.712"
	 style="enable-background:new 0 0 82.712 82.712;" xml:space="preserve">
<style type="text/css">
	.st0{fill:#FFFFFF;}
	.st1{display:none;fill:none;}
	.st2{fill:url(#SVGID_1_);}
	.st3{fill:url(#SVGID_2_);}
</style>
<defs>
	<symbol  id="ing_icon" viewBox="-90 -134 180 268.092">
		<g>
			<path class="st0" d="M22.961-115H-30v11h45.895c62.168,94,60.19,146.301,60.16,146.855l-0.011,0.609
				c0,42.391-33.095,76.991-75.592,76.991C-41.969,120.455-75,85.954-75,43.388V5h22.555l0.855-6.768
				C-51.524-2.193-45.027-44-21.094-74H-11V28H4V-85h-31.277l-2.024,1.315C-51.997-57.775-61.064-21-63.892-10H-90v53.388
				c0,50.012,39.839,90.704,89.704,90.704c49.888,0,90.118-40.45,90.213-90.201c0.207-4.638,1.111-62.033-64.761-156.741L22.961-115
				z"/>
		</g>
		<g>
			<path class="st0" d="M-4.943,34.918c-14.089,0-25.547,11.46-25.547,25.547c0,14.088,11.458,25.548,25.547,25.548
				c14.084,0,25.547-11.46,25.547-25.548C20.605,46.378,9.141,34.918-4.943,34.918z M-4.943,72.505
				c-6.642,0-12.045-5.402-12.045-12.04c0-6.642,5.403-12.043,12.045-12.043S7.101,53.824,7.101,60.466
				C7.101,67.104,1.699,72.505-4.943,72.505z"/>
		</g>
		<g>
			<rect x="-30" y="-134" class="st0" width="53" height="11"/>
		</g>
		<rect x="-90" y="-134" class="st1" width="180" height="268"/>
	</symbol>
</defs>
<g>
	<radialGradient id="SVGID_1_" cx="30.0772" cy="15.0386" r="62.0627" gradientUnits="userSpaceOnUse">
		<stop  offset="0" style="stop-color:#00C784"/>
		<stop  offset="0.144" style="stop-color:#00C183"/>
		<stop  offset="0.3397" style="stop-color:#00AF82"/>
		<stop  offset="0.5653" style="stop-color:#00937F"/>
		<stop  offset="0.8113" style="stop-color:#006B7B"/>
		<stop  offset="1" style="stop-color:#004877"/>
	</radialGradient>
	<circle class="st2" cx="41.356" cy="41.356" r="41.356"/>
	
		<use xlink:href="#ing_icon"  width="180" height="268.092" id="XMLID_1_" x="-90" y="-134" transform="matrix(0.2239 0 0 -0.2239 41.3561 41.3646)" style="overflow:visible;"/>
</g>
</svg>